<svg xmlns="http://www.w3.org/2000/svg" fill="none"><path d="M1.11207 16.159H9.64807C9.9294 16.159 10.1521 16.3976 10.1361 16.679C10.0881 17.4736 10.1214 18.5523 10.4481 19.771C10.7694 20.971 11.2721 21.9217 11.7267 22.611C11.9414 22.9363 11.7067 23.3683 11.3174 23.3683H3.0254C2.90274 23.3683 2.7854 23.3243 2.69607 23.2416C2.15207 22.7443 1.07474 21.595 0.633404 19.771C0.302737 18.407 0.466737 17.239 0.637404 16.5323C0.689404 16.3123 0.886737 16.159 1.11207 16.159Z" fill="#0298F1"></path><path d="M51.6551 16.159H43.1191C42.8378 16.159 42.6151 16.3976 42.6311 16.679C42.6791 17.4736 42.6458 18.5523 42.3191 19.771C41.9978 20.971 41.4951 21.9217 41.0405 22.611C40.8258 22.9363 41.0605 23.3683 41.4498 23.3683H49.7418C49.8645 23.3683 49.9818 23.3243 50.0711 23.2416C50.6151 22.7443 51.6925 21.595 52.1338 19.771C52.4645 18.407 52.3005 17.239 52.1298 16.5323C52.0778 16.3123 51.8805 16.159 51.6551 16.159Z" fill="#0298F1"></path><path d="M40.6733 1.57555C40.612 1.39288 40.4494 1.26355 40.2587 1.24488C36.0467 0.826218 31.3987 0.556885 26.3747 0.556885C21.368 0.558218 16.7333 0.827551 12.532 1.24488C12.3413 1.26355 12.1787 1.39288 12.1174 1.57555C11.0187 4.84222 9.91868 8.10888 8.81868 11.3769C8.72135 11.6662 8.91068 11.9729 9.21202 12.0169C14.1947 12.7316 19.9774 13.2422 26.408 13.2422C32.8293 13.2422 38.6027 12.7302 43.5787 12.0169C43.8813 11.9729 44.0693 11.6662 43.972 11.3769C42.872 8.10888 41.7733 4.84222 40.6733 1.57555Z" fill="#0298F1"></path><path d="M38.7263 31.437C38.665 31.6196 38.5023 31.749 38.3117 31.7676C34.6863 32.1263 30.6863 32.357 26.3663 32.357C22.0597 32.357 18.073 32.1263 14.457 31.7676C14.265 31.749 14.1037 31.6196 14.0423 31.437C13.1303 28.729 12.2197 26.021 11.3077 23.313C11.189 22.9623 11.4877 22.613 11.853 22.6743C16.0437 23.3756 21.053 23.9023 26.705 23.8823C32.0877 23.8623 36.8757 23.3503 40.917 22.6743C41.281 22.613 41.5783 22.9623 41.461 23.313C40.549 26.021 39.6383 28.729 38.7263 31.437Z" fill="#0298F1"></path></svg>