<svg xmlns="http://www.w3.org/2000/svg" fill="none" class="h-[35px] w-[165px]"><path d="M1.11207 16.159H9.64807C9.9294 16.159 10.1521 16.3976 10.1361 16.679C10.0881 17.4736 10.1214 18.5523 10.4481 19.771C10.7694 20.971 11.2721 21.9217 11.7267 22.611C11.9414 22.9363 11.7067 23.3683 11.3174 23.3683H3.0254C2.90274 23.3683 2.7854 23.3243 2.69607 23.2416C2.15207 22.7443 1.07474 21.595 0.633404 19.771C0.302737 18.407 0.466737 17.239 0.637404 16.5323C0.689404 16.3123 0.886737 16.159 1.11207 16.159Z" fill="#0298F1"></path><path d="M51.6551 16.159H43.1191C42.8378 16.159 42.6151 16.3976 42.6311 16.679C42.6791 17.4736 42.6458 18.5523 42.3191 19.771C41.9978 20.971 41.4951 21.9217 41.0405 22.611C40.8258 22.9363 41.0605 23.3683 41.4498 23.3683H49.7418C49.8645 23.3683 49.9818 23.3243 50.0711 23.2416C50.6151 22.7443 51.6925 21.595 52.1338 19.771C52.4645 18.407 52.3005 17.239 52.1298 16.5323C52.0778 16.3123 51.8805 16.159 51.6551 16.159Z" fill="#0298F1"></path><path d="M40.6733 1.57555C40.612 1.39288 40.4494 1.26355 40.2587 1.24488C36.0467 0.826218 31.3987 0.556885 26.3747 0.556885C21.368 0.558218 16.7333 0.827551 12.532 1.24488C12.3413 1.26355 12.1787 1.39288 12.1174 1.57555C11.0187 4.84222 9.91868 8.10888 8.81868 11.3769C8.72135 11.6662 8.91068 11.9729 9.21202 12.0169C14.1947 12.7316 19.9774 13.2422 26.408 13.2422C32.8293 13.2422 38.6027 12.7302 43.5787 12.0169C43.8813 11.9729 44.0693 11.6662 43.972 11.3769C42.872 8.10888 41.7733 4.84222 40.6733 1.57555Z" fill="#0298F1"></path><path d="M38.7263 31.437C38.665 31.6196 38.5023 31.749 38.3117 31.7676C34.6863 32.1263 30.6863 32.357 26.3663 32.357C22.0597 32.357 18.073 32.1263 14.457 31.7676C14.265 31.749 14.1037 31.6196 14.0423 31.437C13.1303 28.729 12.2197 26.021 11.3077 23.313C11.189 22.9623 11.4877 22.613 11.853 22.6743C16.0437 23.3756 21.053 23.9023 26.705 23.8823C32.0877 23.8623 36.8757 23.3503 40.917 22.6743C41.281 22.613 41.5783 22.9623 41.461 23.313C40.549 26.021 39.6383 28.729 38.7263 31.437Z" fill="#0298F1"></path><path d="M66.2442 6.65149C66.6109 6.65149 66.9602 6.75015 67.2909 6.94482C67.6215 7.14215 67.8602 7.43548 68.0069 7.82615L73.7722 21.1582L73.0749 21.4888L78.9149 7.86348C79.2575 7.05548 79.8082 6.66348 80.5669 6.68882C81.0562 6.68882 81.4669 6.84215 81.7975 7.14748C82.1282 7.45415 82.2935 7.85148 82.2935 8.34082C82.2935 8.48748 82.2682 8.64082 82.2202 8.79948C82.1709 8.95948 82.1095 9.11282 82.0362 9.25948L75.0589 24.9768C74.7402 25.7115 74.2135 26.1035 73.4789 26.1528C73.1122 26.2008 72.7509 26.1222 72.3962 25.9142C72.0402 25.7062 71.7655 25.3942 71.5695 24.9768L64.6282 9.25948C64.5789 9.16215 64.5309 9.03282 64.4815 8.87415C64.4322 8.71415 64.4082 8.52482 64.4082 8.30348C64.4082 7.93682 64.5735 7.57015 64.9042 7.20215C65.2349 6.83549 65.6802 6.65149 66.2442 6.65149Z" fill="#0298F1"></path><path d="M101.353 6.83534C101.868 6.83534 102.301 7.01267 102.657 7.36734C103.012 7.72334 103.189 8.17 103.189 8.70867V18.3673C103.189 20.914 102.478 22.902 101.06 24.334C99.6384 25.7673 97.6317 26.4833 95.0357 26.4833C92.465 26.4833 90.4757 25.7673 89.069 24.334C87.6597 22.902 86.957 20.914 86.957 18.3673V8.70867C86.957 8.17 87.1277 7.72334 87.4704 7.36734C87.813 7.01267 88.2544 6.83534 88.793 6.83534C89.3077 6.83534 89.741 7.01267 90.097 7.36734C90.4517 7.72334 90.629 8.17 90.629 8.70867V18.3673C90.629 19.9593 91.0024 21.146 91.749 21.9287C92.4957 22.7127 93.5917 23.1047 95.0357 23.1047C96.505 23.1047 97.6197 22.7127 98.3784 21.9287C99.137 21.146 99.517 19.9593 99.517 18.3673V8.70867C99.517 8.17 99.6877 7.72334 100.03 7.36734C100.373 7.01267 100.814 6.83534 101.353 6.83534Z" fill="#0298F1"></path><path d="M117.769 6.39463C119.091 6.39463 120.266 6.53596 121.294 6.81729C122.323 7.09863 123.125 7.49063 123.699 7.99196C124.275 8.49463 124.563 9.07596 124.563 9.73596C124.563 10.1533 124.441 10.5386 124.195 10.8933C123.951 11.248 123.583 11.4253 123.094 11.4253C122.751 11.4253 122.463 11.3653 122.231 11.2426C121.998 11.12 121.783 10.9733 121.589 10.8013C121.393 10.6306 121.147 10.4586 120.854 10.288C120.585 10.14 120.186 10.0186 119.659 9.91996C119.133 9.82263 118.662 9.77329 118.246 9.77329C116.949 9.77329 115.829 10.0666 114.886 10.6546C113.943 11.2426 113.209 12.0386 112.682 13.0413C112.155 14.0453 111.893 15.184 111.893 16.4573C111.893 17.7306 112.155 18.8693 112.682 19.872C113.209 20.8773 113.931 21.672 114.849 22.26C115.767 22.848 116.838 23.1413 118.062 23.1413C118.797 23.1413 119.397 23.0866 119.862 22.976C120.327 22.8653 120.731 22.7253 121.074 22.5533C121.442 22.3333 121.754 22.1066 122.01 21.8746C122.267 21.6413 122.629 21.5253 123.094 21.5253C123.633 21.5253 124.043 21.6906 124.325 22.0213C124.606 22.352 124.747 22.7613 124.747 23.252C124.747 23.7906 124.422 24.3106 123.773 24.812C123.125 25.3146 122.261 25.724 121.185 26.0426C120.107 26.36 118.919 26.52 117.622 26.52C115.713 26.52 114.053 26.0786 112.646 25.1973C111.238 24.316 110.149 23.1173 109.377 21.5986C108.606 20.0813 108.221 18.3666 108.221 16.4573C108.221 14.524 108.625 12.8026 109.433 11.2973C110.241 9.79196 111.366 8.59863 112.811 7.71729C114.255 6.83596 115.909 6.39463 117.769 6.39463Z" fill="#0298F1"></path><path d="M137.527 23.1412C138.678 23.1412 139.694 22.8479 140.575 22.2599C141.457 21.6719 142.142 20.8706 142.631 19.8546C143.121 18.8386 143.367 17.7066 143.367 16.4572C143.367 15.1852 143.121 14.0466 142.631 13.0426C142.142 12.0386 141.457 11.2426 140.575 10.6546C139.694 10.0666 138.678 9.77323 137.527 9.77323C136.401 9.77323 135.403 10.0666 134.534 10.6546C133.665 11.2426 132.979 12.0386 132.478 13.0426C131.975 14.0466 131.725 15.1852 131.725 16.4572C131.725 17.7066 131.975 18.8386 132.478 19.8546C132.979 20.8706 133.665 21.6719 134.534 22.2599C135.403 22.8479 136.401 23.1412 137.527 23.1412ZM145.019 6.54123C145.557 6.54123 145.998 6.7199 146.341 7.07457C146.683 7.42923 146.855 7.8759 146.855 8.41456V24.2799C146.855 24.8186 146.683 25.2652 146.341 25.6199C145.998 25.9759 145.557 26.1532 145.019 26.1532C144.505 26.1532 144.07 25.9759 143.715 25.6199C143.361 25.2652 143.183 24.8186 143.183 24.2799V21.6359L143.954 21.7452C143.954 22.1866 143.777 22.6759 143.422 23.2146C143.066 23.7532 142.582 24.2746 141.971 24.7759C141.358 25.2772 140.637 25.6932 139.805 26.0239C138.971 26.3546 138.078 26.5199 137.123 26.5199C135.434 26.5199 133.915 26.0852 132.57 25.2159C131.222 24.3479 130.158 23.1532 129.374 21.6359C128.59 20.1172 128.199 18.3919 128.199 16.4572C128.199 14.4746 128.59 12.7292 129.374 11.2239C130.158 9.71856 131.217 8.53723 132.551 7.6799C133.885 6.8239 135.373 6.39457 137.013 6.39457C138.066 6.39457 139.038 6.56656 139.933 6.90923C140.826 7.2519 141.603 7.69323 142.265 8.23057C142.926 8.76923 143.434 9.33856 143.789 9.93856C144.143 10.5386 144.322 11.1079 144.322 11.6466L143.183 11.7559V8.41456C143.183 7.8999 143.361 7.4599 143.715 7.0919C144.07 6.72523 144.505 6.54123 145.019 6.54123Z" fill="#0298F1"></path><path d="M154.751 26.1527C154.212 26.1527 153.771 25.9754 153.428 25.6207C153.086 25.266 152.915 24.818 152.915 24.2794V8.70871C152.915 8.17004 153.086 7.72338 153.428 7.36738C153.771 7.01271 154.212 6.83538 154.751 6.83538C155.264 6.83538 155.699 7.01271 156.055 7.36738C156.41 7.72338 156.587 8.17004 156.587 8.70871V12.822L156.22 11.242C156.415 10.5567 156.716 9.92071 157.12 9.33271C157.524 8.74471 158.007 8.23137 158.57 7.79004C159.134 7.35004 159.764 7.00738 160.462 6.76204C161.159 6.51671 161.887 6.39404 162.647 6.39404C163.283 6.39404 163.834 6.56604 164.299 6.90871C164.764 7.25138 164.998 7.67938 164.998 8.19404C164.998 8.85538 164.826 9.33938 164.483 9.64471C164.14 9.95138 163.76 10.1034 163.344 10.1034C162.978 10.1034 162.622 10.0247 162.279 9.86471C161.936 9.70604 161.532 9.62604 161.068 9.62604C160.554 9.62604 160.027 9.76071 159.488 10.03C158.95 10.3007 158.46 10.698 158.019 11.2234C157.579 11.7514 157.23 12.3687 156.972 13.078C156.716 13.7887 156.587 14.5847 156.587 15.466V24.2794C156.587 24.818 156.41 25.266 156.055 25.6207C155.699 25.9754 155.264 26.1527 154.751 26.1527Z" fill="#0298F1"></path></svg>